<mxfile host="app.diagrams.net" agent="Mozilla/5.0 (Windows NT 10.0; Win64; x64) AppleWebKit/537.36 (KHTML, like Gecko) Chrome/126.0.0.0 Safari/537.36" version="24.7.6">
  <diagram id="wFE0QG_FPsp0jaGvCLVb" name="Page-1">
    <mxGraphModel dx="2074" dy="1106" grid="1" gridSize="10" guides="1" tooltips="1" connect="1" arrows="1" fold="1" page="1" pageScale="1" pageWidth="850" pageHeight="1100" math="0" shadow="0">
      <root>
        <mxCell id="0" />
        <mxCell id="1" parent="0" />
        <mxCell id="pp7dFvi1Cq4HVV2FVrHm-5" style="edgeStyle=orthogonalEdgeStyle;rounded=0;orthogonalLoop=1;jettySize=auto;html=1;" edge="1" parent="1" source="pp7dFvi1Cq4HVV2FVrHm-1" target="pp7dFvi1Cq4HVV2FVrHm-2">
          <mxGeometry relative="1" as="geometry" />
        </mxCell>
        <mxCell id="pp7dFvi1Cq4HVV2FVrHm-7" style="edgeStyle=orthogonalEdgeStyle;rounded=0;orthogonalLoop=1;jettySize=auto;html=1;" edge="1" parent="1" source="pp7dFvi1Cq4HVV2FVrHm-1" target="pp7dFvi1Cq4HVV2FVrHm-6">
          <mxGeometry relative="1" as="geometry" />
        </mxCell>
        <mxCell id="pp7dFvi1Cq4HVV2FVrHm-1" value="&lt;font style=&quot;font-size: 18px;&quot;&gt;&lt;b&gt;Graylog&lt;/b&gt;&lt;/font&gt;&lt;div&gt;&lt;font size=&quot;3&quot;&gt;&lt;b&gt;Nov 2023 Data&lt;/b&gt;&lt;/font&gt;&lt;/div&gt;&lt;div&gt;8.3 mil records&lt;/div&gt;&lt;div&gt;&lt;br&gt;&lt;/div&gt;&lt;div&gt;Information:&lt;br&gt;- User UUID&lt;/div&gt;&lt;div&gt;- Session UUID&lt;/div&gt;&lt;div&gt;- URL UUID&lt;/div&gt;" style="shape=process;whiteSpace=wrap;html=1;backgroundOutline=1;" vertex="1" parent="1">
          <mxGeometry x="30" y="30" width="210" height="150" as="geometry" />
        </mxCell>
        <mxCell id="pp7dFvi1Cq4HVV2FVrHm-2" value="URL UUIDs (160k unique records)" style="ellipse;whiteSpace=wrap;html=1;" vertex="1" parent="1">
          <mxGeometry x="390" y="65" width="120" height="80" as="geometry" />
        </mxCell>
        <mxCell id="pp7dFvi1Cq4HVV2FVrHm-6" value="Student UUIDs (173k unique records)" style="ellipse;whiteSpace=wrap;html=1;" vertex="1" parent="1">
          <mxGeometry x="75" y="310" width="120" height="80" as="geometry" />
        </mxCell>
        <mxCell id="pp7dFvi1Cq4HVV2FVrHm-11" value="Assignment" style="shape=process;whiteSpace=wrap;html=1;backgroundOutline=1;" vertex="1" parent="1">
          <mxGeometry x="640" y="40" width="120" height="60" as="geometry" />
        </mxCell>
        <mxCell id="pp7dFvi1Cq4HVV2FVrHm-12" value="Assignment" style="shape=process;whiteSpace=wrap;html=1;backgroundOutline=1;" vertex="1" parent="1">
          <mxGeometry x="630" y="130" width="120" height="60" as="geometry" />
        </mxCell>
      </root>
    </mxGraphModel>
  </diagram>
</mxfile>
